HIERARCHY
ROOT joint_Root
{
	OFFSET 0.0 0.0 0.0
	CHANNELS 6 Xposition Yposition Zposition Zrotation Xrotation Yrotation 
	JOINT Hips
	{
		OFFSET 4.5925 91.4895 -427.239
		CHANNELS 6 Xposition Yposition Zposition Zrotation Xrotation Yrotation 
		JOINT Spine
		{
			OFFSET 15.7357 0.0 0.0
			CHANNELS 6 Xposition Yposition Zposition Zrotation Xrotation Yrotation 
			JOINT Chest
			{
				OFFSET 8.98455 -0.406207 0.0
				CHANNELS 6 Xposition Yposition Zposition Zrotation Xrotation Yrotation 
				JOINT Neck
				{
					OFFSET 16.3773 0.0 0.0
					CHANNELS 6 Xposition Yposition Zposition Zrotation Xrotation Yrotation 
					JOINT Head
					{
						OFFSET 6.45672 0.0 0.0
						CHANNELS 6 Xposition Yposition Zposition Zrotation Xrotation Yrotation 
						End Site
						{
							OFFSET 0.0 0.0 0.0
						}
					}
				}
				JOINT Shoulder_L
				{
					OFFSET 12.9942 -0.242716 4.98039
					CHANNELS 6 Xposition Yposition Zposition Zrotation Xrotation Yrotation 
					JOINT UpperArm_L
					{
						OFFSET 5.34809 0.0 0.0
						CHANNELS 6 Xposition Yposition Zposition Zrotation Xrotation Yrotation 
						JOINT LowerArm_L
						{
							OFFSET 24.3286 1.87007e-05 0.0
							CHANNELS 6 Xposition Yposition Zposition Zrotation Xrotation Yrotation 
							JOINT Hand_L
							{
								OFFSET 22.2916 0.0 0.0
								CHANNELS 6 Xposition Yposition Zposition Zrotation Xrotation Yrotation 
								End Site
								{
									OFFSET 0.0 0.0 0.0
								}
							}
						}
					}
				}
				JOINT Shoulder_R
				{
					OFFSET 12.9945 -0.242716 -4.98039
					CHANNELS 6 Xposition Yposition Zposition Zrotation Xrotation Yrotation 
					JOINT UpperArm_R
					{
						OFFSET -5.34813 0.0 0.0
						CHANNELS 6 Xposition Yposition Zposition Zrotation Xrotation Yrotation 
						JOINT LowerArm_R
						{
							OFFSET -24.3289 0.000322201 0.0
							CHANNELS 6 Xposition Yposition Zposition Zrotation Xrotation Yrotation 
							JOINT Hand_R
							{
								OFFSET -22.2915 -0.000108084 0.0
								CHANNELS 6 Xposition Yposition Zposition Zrotation Xrotation Yrotation 
								End Site
								{
									OFFSET 0.0 0.0 0.0
								}
							}
						}
					}
				}
			}
		}
		JOINT UpperLeg_L
		{
			OFFSET -2.19248 -6.46944 0.0
			CHANNELS 6 Xposition Yposition Zposition Zrotation Xrotation Yrotation 
			JOINT LowerLeg_L
			{
				OFFSET 39.0811 0.0 -1.23785e-05
				CHANNELS 6 Xposition Yposition Zposition Zrotation Xrotation Yrotation 
				JOINT Foot_L
				{
					OFFSET 40.9854 0.0 -1.26872e-05
					CHANNELS 6 Xposition Yposition Zposition Zrotation Xrotation Yrotation 
					JOINT Toes_L
					{
						OFFSET 11.7543 0.0 0.0
						CHANNELS 6 Xposition Yposition Zposition Zrotation Xrotation Yrotation 
						End Site
						{
							OFFSET 0.0 0.0 0.0
						}
					}
				}
			}
		}
		JOINT UpperLeg_R
		{
			OFFSET -2.19251 6.46944 0.0
			CHANNELS 6 Xposition Yposition Zposition Zrotation Xrotation Yrotation 
			JOINT LowerLeg_R
			{
				OFFSET -39.0811 -0.00228153 -0.0401928
				CHANNELS 6 Xposition Yposition Zposition Zrotation Xrotation Yrotation 
				JOINT Foot_R
				{
					OFFSET -40.9854 0.0 0.0
					CHANNELS 6 Xposition Yposition Zposition Zrotation Xrotation Yrotation 
					JOINT Toes_R
					{
						OFFSET -11.7543 0.0 0.0
						CHANNELS 6 Xposition Yposition Zposition Zrotation Xrotation Yrotation 
						End Site
						{
							OFFSET 0.0 0.0 0.0
						}
					}
				}
			}
		}
	}
}
MOTION
Frames:	7
Frame Time:	0.0333333
0.000000 0.000000 0.000000 0.000000 0.000000 -0.000000 -3.905330 82.172200 0.134813 86.984500 -1.705180 12.032900 15.735700 0.000005 -0.000001 81.129500 80.862800 -79.958000 8.984550 -0.406207 -0.000000 10.328400 -2.773040 2.592570 16.377300 -0.000001 -0.000001 -1.927400 -3.634420 2.153770 6.456720 -0.000001 -0.000000 -6.915720 -0.322084 -0.337282 12.994200 -0.242716 4.980390 -91.091000 3.741880 -73.732400 5.348090 -0.000007 -0.000001 -62.634700 35.769200 -16.193200 24.328600 0.000019 0.000005 8.263850 18.743100 -24.324500 22.291600 -0.000001 0.000005 13.153000 5.168960 3.488960 12.994500 -0.242716 -4.980390 88.066900 8.609410 -77.294300 -5.348130 -0.000001 -0.000004 -55.387700 16.481500 -15.465800 -24.328900 0.000322 -0.000009 -0.954466 -5.383860 -10.037000 -22.291500 -0.000108 -0.000004 4.324020 5.284940 0.501257 -2.192480 -6.469440 -0.000000 -169.596000 -8.061830 -13.206500 39.081100 -0.000007 -0.000012 -0.542308 0.286542 62.150400 40.985400 -0.000006 -0.000013 -1.687890 4.821590 -86.402600 11.754300 -0.000000 0.000003 -0.000137 -0.001349 -16.628900 -2.192510 6.469440 -0.000001 -178.486000 13.228300 167.440000 -39.081100 -0.002282 -0.040193 0.099672 -0.052873 61.276200 -40.985400 0.000008 0.000006 8.587060 0.394971 -86.584300 -11.754300 -0.000006 -0.000006 -0.266925 -0.331241 -17.101200
0.000000 0.000000 0.000000 0.000000 0.000000 -0.000000 -4.168140 84.057500 0.750844 86.998800 -0.345590 11.604400 15.735700 0.000005 -0.000001 80.996800 81.907600 -80.578100 8.984550 -0.406207 -0.000000 8.234710 -2.519670 1.018050 16.377300 -0.000001 -0.000001 -0.623505 -3.648460 2.256770 6.456720 -0.000001 -0.000000 -5.982750 -0.986499 0.544180 12.994200 -0.242716 4.980390 -91.048500 3.410470 -72.899000 5.348090 -0.000007 -0.000001 -64.991900 33.817400 -13.529800 24.328600 0.000019 0.000005 8.352680 20.116600 -23.117400 22.291600 -0.000001 0.000005 12.255500 5.153890 3.849920 12.994500 -0.242716 -4.980390 88.385000 6.911970 -76.814200 -5.348130 -0.000001 -0.000004 -51.530800 11.422600 -18.031600 -24.328900 0.000322 -0.000009 -0.342721 -3.002340 -6.495320 -22.291500 -0.000108 -0.000004 -0.266663 5.248650 1.473370 -2.192480 -6.469440 -0.000000 -169.913000 -6.686820 -10.789600 39.081100 -0.000007 -0.000012 -0.478714 0.316248 56.551500 40.985400 -0.000006 -0.000013 -2.077800 4.715270 -83.870600 11.754300 -0.000000 0.000003 -0.000115 -0.001158 -16.621800 -2.192510 6.469440 -0.000001 -178.632000 14.385800 170.279000 -39.081100 -0.002282 -0.040193 0.091419 -0.060265 55.654500 -40.985400 0.000008 0.000006 8.458290 0.776393 -84.041100 -11.754300 -0.000006 -0.000006 -0.363017 -0.448758 -17.290800
0.000000 0.000000 0.000000 0.000000 0.000000 -0.000000 -4.188930 86.348400 1.363010 87.367800 0.695278 10.559500 15.735700 0.000005 -0.000001 79.847600 83.250200 -80.267100 8.984550 -0.406207 -0.000000 5.517410 -2.365730 -0.724015 16.377300 -0.000001 -0.000001 1.055410 -3.731450 2.248380 6.456720 -0.000001 -0.000000 -4.690030 -1.677730 1.580270 12.994200 -0.242716 4.980390 -90.892800 2.768180 -72.116300 5.348090 -0.000007 -0.000001 -67.497900 31.659700 -9.244160 24.328600 0.000019 0.000005 7.897630 18.910800 -23.172000 22.291600 -0.000001 0.000005 10.774800 5.187770 3.019160 12.994500 -0.242716 -4.980390 88.777200 4.990690 -76.212300 -5.348130 -0.000001 -0.000004 -45.324800 2.375660 -22.312000 -24.328900 0.000322 -0.000009 -0.532388 -4.618350 -6.567910 -22.291500 -0.000108 -0.000004 0.879765 5.211910 2.419400 -2.192480 -6.469440 -0.000000 -170.617000 -6.307380 -7.886960 39.081100 -0.000007 -0.000012 -0.390744 0.340239 48.953300 40.985400 -0.000006 -0.000013 -2.152760 4.893050 -80.347000 11.754300 -0.000000 0.000003 -0.000059 -0.000655 -16.602900 -2.192510 6.469440 -0.000001 -179.126000 15.257500 173.259000 -39.081100 -0.002282 -0.040193 0.077230 -0.065818 48.340200 -40.985400 0.000008 0.000006 8.185370 1.557910 -80.438100 -11.754300 -0.000006 -0.000006 -0.437067 -0.539376 -17.614400
0.000000 0.000000 0.000000 0.000000 0.000000 -0.000000 -3.946290 88.389500 1.664870 87.906000 1.423580 8.452620 15.735700 0.000005 -0.000001 76.984700 84.751000 -78.059300 8.984550 -0.406207 -0.000000 2.443340 -2.312480 -2.097990 16.377300 -0.000001 -0.000001 2.155200 -3.947790 2.018330 6.456720 -0.000001 -0.000000 -3.446590 -2.380990 2.080260 12.994200 -0.242716 4.980390 -90.741600 2.178310 -71.193800 5.348090 -0.000007 -0.000001 -69.056500 29.903000 -5.375320 24.328600 0.000019 0.000005 7.502050 17.360900 -23.813400 22.291600 -0.000001 0.000005 8.895820 5.219460 2.224490 12.994500 -0.242716 -4.980390 89.184300 3.269900 -75.985400 -5.348130 -0.000001 -0.000004 -36.378700 -7.880880 -28.456200 -24.328900 0.000322 -0.000009 -1.321740 -8.509040 -8.848420 -22.291500 -0.000108 -0.000004 4.765100 5.260780 1.164630 -2.192480 -6.469440 -0.000000 -171.602000 -6.980320 -6.139930 39.081100 -0.000007 -0.000012 -0.284744 0.324742 41.245900 40.985400 -0.000006 -0.000013 -1.907690 5.481250 -76.528300 11.754300 -0.000000 0.000003 -0.000045 -0.000514 -16.597500 -2.192510 6.469440 -0.000001 -179.635000 16.122300 174.790000 -39.081100 -0.002282 -0.040193 0.060111 -0.064894 41.212600 -40.985400 0.000008 0.000006 7.775850 2.786540 -76.536100 -11.754300 -0.000006 -0.000006 -0.478544 -0.590014 -18.068200
0.000000 0.000000 0.000000 0.000000 0.000000 -0.000000 -3.729090 89.785800 1.543190 88.225700 2.029320 6.137360 15.735700 0.000005 -0.000001 74.495700 85.967500 -75.892100 8.984550 -0.406207 -0.000000 -0.017585 -2.060510 -2.791610 16.377300 -0.000001 -0.000001 2.242510 -4.385270 1.747140 6.456720 -0.000001 -0.000000 -3.083860 -3.350950 1.883010 12.994200 -0.242716 4.980390 -90.622100 1.771990 -70.651700 5.348090 -0.000007 -0.000001 -69.617300 28.261400 -2.869070 24.328600 0.000019 0.000005 7.860810 17.562400 -24.586500 22.291600 -0.000001 0.000005 7.696440 5.220410 2.202380 12.994500 -0.242716 -4.980390 89.906200 0.409281 -77.122600 -5.348130 -0.000001 -0.000004 -27.721700 -20.690400 -32.184900 -24.328900 0.000322 -0.000009 -3.686910 -13.700900 -15.201500 -22.291500 -0.000108 -0.000004 11.011500 5.385950 -2.416520 -2.192480 -6.469440 -0.000000 -172.322000 -7.950640 -5.728030 39.081100 -0.000007 -0.000012 -0.217760 0.307707 35.286900 40.985400 -0.000006 -0.000013 -1.624910 6.404310 -73.309600 11.754300 -0.000000 0.000003 -0.000039 -0.000458 -16.595400 -2.192510 6.469440 -0.000001 -179.712000 17.235700 175.051000 -39.081100 -0.002282 -0.040193 0.047146 -0.061116 35.663400 -40.985400 0.000008 0.000006 7.511490 4.088760 -73.420800 -11.754300 -0.000006 -0.000006 -0.410290 -0.511310 -18.371100
0.000000 0.000000 0.000000 0.000000 0.000000 -0.000000 -3.602510 90.571700 1.359790 88.424900 3.191030 4.493580 15.735700 0.000005 -0.000001 75.932800 86.666900 -77.515100 8.984550 -0.406207 -0.000000 -1.318510 -1.494550 -3.180710 16.377300 -0.000001 -0.000001 1.450480 -5.404190 1.818800 6.456720 -0.000001 -0.000000 -3.676650 -4.281160 1.125140 12.994200 -0.242716 4.980390 -90.608000 1.751730 -70.856400 5.348090 -0.000007 -0.000001 -68.600600 27.064700 -1.985880 24.328600 0.000019 0.000005 8.261830 17.907500 -25.278200 22.291600 -0.000001 0.000005 7.872440 5.211920 2.418370 12.994500 -0.242716 -4.980390 90.708600 -3.124950 -77.219300 -5.348130 -0.000001 -0.000004 -19.983700 -34.929100 -33.200200 -24.328900 0.000322 -0.000009 -7.670690 -15.292000 -27.051400 -22.291500 -0.000108 -0.000004 17.995400 5.534250 -7.862810 -2.192480 -6.469440 -0.000000 -172.809000 -8.363030 -5.884960 39.081100 -0.000007 -0.000012 -0.180380 0.293774 31.550600 40.985400 -0.000006 -0.000013 -1.345020 7.606280 -71.142300 11.754300 -0.000000 0.000003 -0.000036 -0.000429 -16.594300 -2.192510 6.469440 -0.000001 -179.672000 18.589900 175.248000 -39.081100 -0.002282 -0.040193 0.038951 -0.057527 31.788700 -40.985400 0.000008 0.000006 7.264450 4.783650 -71.736600 -11.754300 -0.000006 -0.000006 -0.099525 -0.152732 -18.320500
0.000000 0.000000 0.000000 0.000000 0.000000 -0.000000 -3.701650 90.916900 1.071810 88.577500 5.296900 3.554710 15.735700 0.000005 -0.000001 75.941500 86.887100 -77.589100 8.984550 -0.406207 -0.000000 -1.744490 -1.375290 -3.315530 16.377300 -0.000001 -0.000001 0.367250 -6.379730 2.415870 6.456720 -0.000001 -0.000000 -4.696990 -4.591660 -0.268013 12.994200 -0.242716 4.980390 -90.783400 2.289560 -71.104200 5.348090 -0.000007 -0.000001 -66.527500 25.738300 -2.057100 24.328600 0.000019 0.000005 8.981050 18.900700 -26.007600 22.291600 -0.000001 0.000005 9.038650 5.194420 2.856900 12.994500 -0.242716 -4.980390 91.638000 -6.549230 -75.930500 -5.348130 -0.000001 -0.000004 -10.278700 -47.444300 -31.600800 -24.328900 0.000322 -0.000009 -7.331110 -8.621070 -40.675300 -22.291500 -0.000108 -0.000004 25.135700 5.618940 -12.428200 -2.192480 -6.469440 -0.000000 -173.050000 -8.039330 -6.637770 39.081100 -0.000007 -0.000012 -0.156075 0.271522 29.891200 40.985400 -0.000006 -0.000013 -1.091750 9.135940 -69.833100 11.754300 -0.000000 0.000003 -0.000030 -0.000361 -16.591600 -2.192510 6.469440 -0.000001 -179.441000 20.050800 175.401000 -39.081100 -0.002282 -0.040193 0.037312 -0.060199 29.464000 -40.985400 0.000008 0.000006 7.245300 4.292970 -71.239200 -11.754300 -0.000006 -0.000006 -0.003117 -0.041923 -18.278100
